<?xml version="1.0" encoding="UTF-8" standalone="no"?>
<!DOCTYPE svg PUBLIC "-//W3C//DTD SVG 1.1//EN" "http://www.w3.org/Graphics/SVG/1.1/DTD/svg11.dtd">
<svg width="100%" height="100%" viewBox="0 0 512 512" version="1.1" xmlns="http://www.w3.org/2000/svg" xmlns:xlink="http://www.w3.org/1999/xlink" xml:space="preserve" xmlns:serif="http://www.serif.com/" style="fill-rule:evenodd;clip-rule:evenodd;stroke-linejoin:round;stroke-miterlimit:2;">
    <g transform="matrix(1.29811,1.29811,-1.29811,1.29811,-246.61,-590.61)">
        <g transform="matrix(0.528658,0,0,0.528658,-589.704,-327.097)">
            <g transform="matrix(1.53422,0,0,1.53422,-1168.24,-433.268)">
                <path d="M2151.74,685.691C2166.49,693.692 2176.51,709.313 2176.51,727.255C2176.51,753.336 2155.34,774.511 2129.26,774.511C2103.17,774.511 2082,753.336 2082,727.255C2082,709.313 2092.02,693.692 2106.77,685.691L2106.77,727.255L2129.26,739.965L2151.74,727.255L2151.74,685.691Z" style="fill:white;"/>
            </g>
            <path d="M2129.09,768.752L2129.09,1008.39C2146.7,1018.85 2158.5,1038.06 2158.5,1060C2158.5,1093.12 2131.62,1120 2098.5,1120C2065.39,1120 2038.5,1093.12 2038.5,1060C2038.5,1038.06 2050.3,1018.85 2067.91,1008.39L2067.91,768.752C2077.47,772.15 2087.77,774 2098.5,774C2109.23,774 2119.53,772.15 2129.09,768.752ZM2098.5,1024L2067.32,1042L2067.32,1078L2098.5,1096L2129.68,1078L2129.68,1042L2098.5,1024Z" style="fill:white;"/>
        </g>
        <g transform="matrix(0.549793,0,0,0.549793,378.938,-8.24689)">
            <path d="M357.516,62.029C350.357,58.271 347.596,49.408 351.354,42.248C355.113,35.089 363.976,32.328 371.135,36.087C450.224,77.606 504.215,160.549 504.215,256C504.215,360.715 439.231,450.373 347.424,486.806C339.908,489.789 331.385,486.108 328.403,478.593C325.421,471.077 329.101,462.554 336.616,459.572C417.592,427.437 474.914,348.361 474.914,256C474.914,171.806 427.278,98.652 357.516,62.029Z" style="fill:white;"/>
        </g>
        <g transform="matrix(0.549793,0,0,0.549793,378.938,-8.24689)">
            <path d="M175.384,459.572C182.899,462.554 186.579,471.077 183.597,478.593C180.615,486.108 172.092,489.789 164.576,486.806C72.769,450.373 7.785,360.715 7.785,256C7.785,160.549 61.776,77.606 140.865,36.087C148.024,32.328 156.887,35.089 160.646,42.248C164.404,49.408 161.643,58.271 154.484,62.029C84.722,98.652 37.086,171.806 37.086,256C37.086,348.361 94.408,427.437 175.384,459.572Z" style="fill:white;"/>
        </g>
        <g transform="matrix(0.253047,0,0,0.253047,454.905,67.72)">
            <path d="M373.682,92.177C359.427,81.911 356.188,62.002 366.455,47.747C376.721,33.491 396.63,30.253 410.886,40.519C477.807,88.715 521.395,167.31 521.395,256C521.395,344.69 477.807,423.285 410.886,471.481C396.63,481.747 376.721,478.509 366.455,464.253C356.188,449.998 359.427,430.089 373.682,419.823C424.565,383.178 457.734,323.434 457.734,256C457.734,188.566 424.565,128.822 373.682,92.177ZM138.318,419.823C152.573,430.089 155.812,449.998 145.545,464.253C135.279,478.509 115.37,481.747 101.114,471.481C34.193,423.285 -9.395,344.69 -9.395,256C-9.395,167.31 34.193,88.715 101.114,40.519C115.37,30.253 135.279,33.491 145.545,47.747C155.812,62.002 152.573,81.911 138.318,92.177C87.435,128.822 54.266,188.566 54.266,256C54.266,323.434 87.435,383.178 138.318,419.823Z" style="fill:white;"/>
        </g>
        <g transform="matrix(0.401378,0,0,0.401378,416.932,29.7473)">
            <path d="M151.121,441.968C160.76,447.421 164.159,459.675 158.705,469.315C153.251,478.955 140.997,482.353 131.358,476.899C54.369,433.342 2.368,350.694 2.368,256C2.368,173.433 41.9,100.024 103.063,53.702C111.892,47.016 124.489,48.755 131.176,57.584C137.863,66.413 136.123,79.01 127.294,85.697C75.802,124.695 42.503,186.488 42.503,256C42.503,335.725 86.302,405.296 151.121,441.968ZM384.706,85.697C375.877,79.01 374.137,66.413 380.824,57.584C387.511,48.755 400.108,47.016 408.937,53.702C470.1,100.024 509.632,173.433 509.632,256C509.632,350.694 457.631,433.342 380.642,476.899C371.003,482.353 358.749,478.955 353.295,469.315C347.841,459.675 351.24,447.421 360.879,441.968C425.698,405.296 469.497,335.725 469.497,256C469.497,186.488 436.198,124.695 384.706,85.697Z" style="fill:white;"/>
        </g>
        <g transform="matrix(0.811077,0,0,0.811077,-1207.3,-556.148)">
            <path d="M2151.74,685.691C2166.49,693.692 2176.51,709.313 2176.51,727.255C2176.51,753.336 2155.34,774.511 2129.26,774.511C2103.17,774.511 2082,753.336 2082,727.255C2082,709.313 2092.02,693.692 2106.77,685.691L2106.77,727.255L2129.26,739.965L2151.74,727.255L2151.74,685.691Z" style="fill:white;"/>
        </g>
    </g>
</svg>
